{"title":"Private Lessons {1981 VHS uncensored version}","uid":9175779,"size":851115914,"categoryP":"video","categoryS":"movies","magnet":"?xt=urn:btih:b2d3630dc64ad87422de1b0c615c113f9977fa31&amp;dn=Private+Lessons+%7B1981+VHS+uncensored+version%7D&amp;tr=udp%3A%2F%2Ftracker.openbittorrent.com%3A80&amp;tr=udp%3A%2F%2Fopen.demonii.com%3A1337&amp;tr=udp%3A%2F%2Ftracker.coppersurfer.tk%3A6969&amp;tr=udp%3A%2F%2Fexodus.desync.com%3A6969","seeders":2,"leechers":1,"uploader":null,"files":-1,"time":1384145737,"description":"This is a *VHS* conversion. The VHS version is the only version with uncensored nudity and the infamous strip scene with Slyvia Kristel. The DVD version was released with major cuts and edits that you would not find in the VHS version. I bought a VHS conversion kit and painfully did my best to encode this great film into a digitized format for all to enjoy.\nPlease be aware that this is a VHS conversion and the quality will not be like a BRRIP! I hope you all enjoy what should have been released onto the DVD but was not.\nAs always,if the upload is slow or nonexistant.  \n\n\n\nFormat                                   : MPEG-4\nFormat profile                           : Base Media / Version 2\nCodec ID                                 : mp42\nFile size                                : 788 MiB\nDuration                                 : 1h 27mn\nOverall bit rate mode                    : Variable\nOverall bit rate                         : 1 265 Kbps\nEncoded date                             : UTC 2013-11-01 00:24:21\nTagged date                              : UTC 2013-11-01 01:45:06\nWriting application                      : HandBrake 0.9.9 2013052900\n\nVideo\nID                                       : 1\nFormat                                   : AVC\nFormat/Info                              : Advanced Video Codec\nFormat profile                           : &lt;a class=&quot;__cf_email__&quot; href=&quot;/cdn-cgi/l/email-protection&quot; data-cfemail=&quot;2068494748606c150e12&quot;&gt;[email&amp;#160;protected]&lt;/a&gt;&lt;script cf-hash='f9e31' type=&quot;text/javascript&quot;&gt;\n/* &lt;![CDATA[ */!function(){try{var t=&quot;currentScript&quot;in document?document.currentScript:function(){for(var t=document.getElementsByTagName(&quot;script&quot;),e=t.length;e--;)if(t[e].getAttribute(&quot;cf-hash&quot;))return t[e]}();if(t&amp;&amp;t.previousSibling){var e,r,n,i,c=t.previousSibling,a=c.getAttribute(&quot;data-cfemail&quot;);if(a){for(e=&quot;&quot;,r=parseInt(a.substr(0,2),16),n=2;a.length-n;n+=2)i=parseInt(a.substr(n,2),16)^r,e+=String.fromCharCode(i);e=document.createTextNode(e),c.parentNode.replaceChild(e,c)}}}catch(u){}}();/* ]]&gt; */&lt;/script&gt;\nFormat settings, CABAC                   : Yes\nFormat settings, ReFrames                : 5 frames\nCodec ID                                 : avc1\nCodec ID/Info                            : Advanced Video Coding\nDuration                                 : 1h 27mn\nBit rate mode                            : Variable\nBit rate                                 : 939 Kbps\nWidth                                    : 720 pixels\nHeight                                   : 576 pixels\nDisplay aspect ratio                     : 16:9\nFrame rate mode                          : Constant\nFrame rate                               : 25.000 fps\nStandard                                 : PAL\nColor space                              : YUV\nChroma subsampling                       : 4:2:0\nBit depth                                : 8 bits\nScan type                                : Progressive\nBits/(Pixel*Frame)                       : 0.091\nStream size                              : 585 MiB (74%)\nWriting library                          : x264 core 130 r2273 b3065e6\nEncoding settings                        : cabac=1 // deblock=1:0:0 / \nEncoded date                             : UTC 2013-11-01 00:24:21\nTagged date                              : UTC 2013-11-01 01:45:06\nColor primaries                          : BT.601 PAL\nTransfer characteristics                 : BT.709\nMatrix coefficients                      : BT.601\n\nAudio #1\nID                                       : 2\nFormat                                   : AAC\nFormat/Info                              : Advanced Audio Codec\nFormat profile                           : LC\nCodec ID                                 : 40\nDuration                                 : 1h 27mn\nBit rate mode                            : Variable\nBit rate                                 : 160 Kbps\nMaximum bit rate                         : 282 Kbps\nChannel(s)                               : 2 channels\nChannel positions                        : Front: L R\nSampling rate                            : 48.0 KHz\nCompression mode                         : Lossy\nDelay relative to video                  : 80ms\nStream size                              : 99.6 MiB (13%)\nLanguage                                 : English\nEncoded date                             : UTC 2013-11-01 00:24:21\nTagged date                              : UTC 2013-11-01 01:45:05\n\n\n\n\n\nINCLUDES DIRECTORS COMMENTARY\n\n\n\nI extracted the DVD commentary from the dvd and added it in to the VHS VERSION\n\n\n\nDVD Censored Version:    &lt;a href=&quot; http://postimg.org/image/awwxrfcr3/&quot; rel=&quot;nofollow&quot; target=&quot;_NEW&quot;&gt; http://postimg.org/image/awwxrfcr3/&lt;/a&gt;\n\n\nUncensored VHS version:  &lt;a href=&quot; http://postimg.org/image/plm2r3ya7/&quot; rel=&quot;nofollow&quot; target=&quot;_NEW&quot;&gt; http://postimg.org/image/plm2r3ya7/&lt;/a&gt;\n\n\nDVD Censored Version:    &lt;a href=&quot; http://postimg.org/image/6p25iobbj/&quot; rel=&quot;nofollow&quot; target=&quot;_NEW&quot;&gt; http://postimg.org/image/6p25iobbj/&lt;/a&gt;\n\n\nUncensored VHS version:  &lt;a href=&quot; http://postimg.org/image/6f8vnxhsf/&quot; rel=&quot;nofollow&quot; target=&quot;_NEW&quot;&gt; http://postimg.org/image/6f8vnxhsf/&lt;/a&gt;\n\n\n\nStoryline\n\nPhillip Filmore is a naive, 15-year-old, preoccupied with sex, who develops a crush on Nicole Mallow, the new 30-something, French housekeeper and sitter to look after him when Phillip's father is out of town for the summer on a &quot;business&quot; trip. But Mr. Filmore's unscrupulous chauffeur, Lester Lewis, takes advantage of Phillip's crush on Nicole to hire her to seduce the youth, then draws her into a plot to fake her own death in a blackmail scheme aimed to drain Phillip's trust fund. \n\n\n","torrent":{"xt":"urn:btih:b2d3630dc64ad87422de1b0c615c113f9977fa31","amp;dn":"Private+Lessons+%7B1981+VHS+uncensored+version%7D","amp;tr":["udp%3A%2F%2Ftracker.openbittorrent.com%3A80","udp%3A%2F%2Fopen.demonii.com%3A1337","udp%3A%2F%2Ftracker.coppersurfer.tk%3A6969","udp%3A%2F%2Fexodus.desync.com%3A6969"],"infoHash":"b2d3630dc64ad87422de1b0c615c113f9977fa31","infoHashBuffer":{"type":"Buffer","data":[178,211,99,13,198,74,216,116,34,222,27,12,97,92,17,63,153,119,250,49]},"announce":[],"urlList":[]}}